<?xml version="1.0" encoding="UTF-8"?>
<svg width="314px" height="68px" viewBox="0 0 314 68" version="1.1" xmlns="http://www.w3.org/2000/svg" xmlns:xlink="http://www.w3.org/1999/xlink">
    <!-- Generator: Sketch 39.1 (31720) - http://www.bohemiancoding.com/sketch -->
    <title>up to date</title>
    <desc>Created with Sketch.</desc>
    <defs></defs>
    <g id="Page-1" stroke="none" stroke-width="1" fill="none" fill-rule="evenodd">
        <g id="up-to-date">
            <rect id="Rectangle" fill="#97CD76" x="0" y="0" width="314" height="68"></rect>
            <g id="Page-1" transform="translate(8.000000, 7.000000)" fill="#FFFFFF">
                <path d="M26.77,0 C11.985,0 0,11.989 0,26.77 C0,41.555 11.985,53.54 26.77,53.54 C41.555,53.54 53.54,41.555 53.54,26.77 C53.54,11.985 41.555,0 26.77,0 L26.77,0 Z M26.77,50.864 C13.485,50.864 2.676,40.055 2.676,26.77 C2.676,13.485 13.485,2.676 26.77,2.676 C40.055,2.676 50.864,13.485 50.864,26.77 C50.864,40.055 40.055,50.864 26.77,50.864 L26.77,50.864 Z" id="Fill-1"></path>
                <polygon id="Fill-2" points="21.219 33.832 13.91 26.379 12 28.254 21.199 37.633 39.942 18.891 38.051 17"></polygon>
            </g>
            <path d="M94.421875,48.4921875 C92.7343666,50.4765724 90.2578288,51.46875 86.9921875,51.46875 C84.289049,51.46875 82.2304758,50.6836016 80.8164062,49.1132812 C79.4023367,47.5429609 78.6875001,45.2187654 78.671875,42.140625 L78.671875,25.640625 L83.0078125,25.640625 L83.0078125,42.0234375 C83.0078125,45.8672067 84.5702969,47.7890625 87.6953125,47.7890625 C91.0078291,47.7890625 93.210932,46.5546998 94.3046875,44.0859375 L94.3046875,25.640625 L98.640625,25.640625 L98.640625,51 L94.515625,51 L94.421875,48.4921875 Z M126.648438,38.6015625 C126.648438,42.4609568 125.765634,45.5703007 124,47.9296875 C122.234366,50.2890743 119.843765,51.46875 116.828125,51.46875 C113.749985,51.46875 111.328134,50.4921973 109.5625,48.5390625 L109.5625,60.75 L105.226562,60.75 L105.226562,25.640625 L109.1875,25.640625 L109.398438,28.453125 C111.164071,26.2656141 113.617172,25.171875 116.757812,25.171875 C119.804703,25.171875 122.214835,26.320301 123.988281,28.6171875 C125.761728,30.914074 126.648438,34.1093545 126.648438,38.203125 L126.648438,38.6015625 Z M122.3125,38.109375 C122.3125,35.2499857 121.703131,32.9921958 120.484375,31.3359375 C119.265619,29.6796792 117.593761,28.8515625 115.46875,28.8515625 C112.843737,28.8515625 110.875007,30.0156134 109.5625,32.34375 L109.5625,44.4609375 C110.859381,46.7734491 112.843737,47.9296875 115.515625,47.9296875 C117.59376,47.9296875 119.246088,47.105477 120.472656,45.4570312 C121.699225,43.8085855 122.3125,41.3593913 122.3125,38.109375 L122.3125,38.109375 Z M149.921875,19.5 L149.921875,25.640625 L154.65625,25.640625 L154.65625,28.9921875 L149.921875,28.9921875 L149.921875,44.71875 C149.921875,45.7343801 150.13281,46.4960912 150.554688,47.0039062 C150.976565,47.5117213 151.695307,47.765625 152.710938,47.765625 C153.21094,47.765625 153.898433,47.6718759 154.773438,47.484375 L154.773438,51 C153.632807,51.3125016 152.523443,51.46875 151.445312,51.46875 C149.507803,51.46875 148.04688,50.8828184 147.0625,49.7109375 C146.07812,48.5390566 145.585938,46.8750108 145.585938,44.71875 L145.585938,28.9921875 L140.96875,28.9921875 L140.96875,25.640625 L145.585938,25.640625 L145.585938,19.5 L149.921875,19.5 Z M158.101562,38.0859375 C158.101562,35.6015501 158.589839,33.3671974 159.566406,31.3828125 C160.542974,29.3984276 161.902335,27.8671929 163.644531,26.7890625 C165.386727,25.7109321 167.374989,25.171875 169.609375,25.171875 C173.062517,25.171875 175.855458,26.3671755 177.988281,28.7578125 C180.121104,31.1484495 181.1875,34.3281052 181.1875,38.296875 L181.1875,38.6015625 C181.1875,41.0703248 180.714848,43.2851464 179.769531,45.2460938 C178.824214,47.2070411 177.472665,48.7343695 175.714844,49.828125 C173.957022,50.9218805 171.937511,51.46875 169.65625,51.46875 C166.218733,51.46875 163.433604,50.2734495 161.300781,47.8828125 C159.167958,45.4921755 158.101562,42.3281447 158.101562,38.390625 L158.101562,38.0859375 Z M162.460938,38.6015625 C162.460938,41.4140766 163.113275,43.6718665 164.417969,45.375 C165.722663,47.0781335 167.468739,47.9296875 169.65625,47.9296875 C171.859386,47.9296875 173.609369,47.0664149 174.90625,45.3398438 C176.203131,43.6132726 176.851562,41.195328 176.851562,38.0859375 C176.851562,35.3046736 176.191413,33.0507899 174.871094,31.3242188 C173.550775,29.5976476 171.796886,28.734375 169.609375,28.734375 C167.468739,28.734375 165.742194,29.585929 164.429688,31.2890625 C163.117181,32.992196 162.460938,35.4296716 162.460938,38.6015625 L162.460938,38.6015625 Z M197.453125,38.109375 C197.453125,34.2187305 198.374991,31.0898556 200.21875,28.7226562 C202.062509,26.3554569 204.476548,25.171875 207.460938,25.171875 C210.429702,25.171875 212.781241,26.1874898 214.515625,28.21875 L214.515625,15 L218.851562,15 L218.851562,51 L214.867188,51 L214.65625,48.28125 C212.921866,50.4062606 210.507828,51.46875 207.414062,51.46875 C204.476548,51.46875 202.082041,50.265637 200.230469,47.859375 C198.378897,45.453113 197.453125,42.3125194 197.453125,38.4375 L197.453125,38.109375 Z M201.789062,38.6015625 C201.789062,41.4765769 202.382807,43.7265544 203.570312,45.3515625 C204.757818,46.9765706 206.398427,47.7890625 208.492188,47.7890625 C211.242201,47.7890625 213.249994,46.5546998 214.515625,44.0859375 L214.515625,32.4375 C213.218744,30.046863 211.226576,28.8515625 208.539062,28.8515625 C206.414052,28.8515625 204.757818,29.6718668 203.570312,31.3125 C202.382807,32.9531332 201.789062,35.3827964 201.789062,38.6015625 L201.789062,38.6015625 Z M241.234375,51 C240.984374,50.4999975 240.781251,49.6093814 240.625,48.328125 C238.609365,50.4218855 236.203139,51.46875 233.40625,51.46875 C230.906238,51.46875 228.855477,50.7617258 227.253906,49.3476562 C225.652336,47.9335867 224.851562,46.1406359 224.851562,43.96875 C224.851562,41.3281118 225.855459,39.2773511 227.863281,37.8164062 C229.871104,36.3554614 232.695294,35.625 236.335938,35.625 L240.554688,35.625 L240.554688,33.6328125 C240.554688,32.1171799 240.101567,30.9101607 239.195312,30.0117188 C238.289058,29.1132768 236.953134,28.6640625 235.1875,28.6640625 C233.640617,28.6640625 232.343755,29.0546836 231.296875,29.8359375 C230.249995,30.6171914 229.726562,31.5624945 229.726562,32.671875 L225.367188,32.671875 C225.367188,31.4062437 225.816402,30.1835996 226.714844,29.0039062 C227.613286,27.8242129 228.832024,26.8906284 230.371094,26.203125 C231.910164,25.5156216 233.601553,25.171875 235.445312,25.171875 C238.367202,25.171875 240.656242,25.9023364 242.3125,27.3632812 C243.968758,28.8242261 244.828125,30.8359247 244.890625,33.3984375 L244.890625,45.0703125 C244.890625,47.3984491 245.187497,49.2499931 245.78125,50.625 L245.78125,51 L241.234375,51 Z M234.039062,47.6953125 C235.398444,47.6953125 236.687494,47.3437535 237.90625,46.640625 C239.125006,45.9374965 240.00781,45.0234431 240.554688,43.8984375 L240.554688,38.6953125 L237.15625,38.6953125 C231.843723,38.6953125 229.1875,40.2499845 229.1875,43.359375 C229.1875,44.7187568 229.64062,45.7812462 230.546875,46.546875 C231.45313,47.3125038 232.61718,47.6953125 234.039062,47.6953125 L234.039062,47.6953125 Z M257.570312,19.5 L257.570312,25.640625 L262.304688,25.640625 L262.304688,28.9921875 L257.570312,28.9921875 L257.570312,44.71875 C257.570312,45.7343801 257.781248,46.4960912 258.203125,47.0039062 C258.625002,47.5117213 259.343745,47.765625 260.359375,47.765625 C260.859377,47.765625 261.546871,47.6718759 262.421875,47.484375 L262.421875,51 C261.281244,51.3125016 260.17188,51.46875 259.09375,51.46875 C257.15624,51.46875 255.695317,50.8828184 254.710938,49.7109375 C253.726558,48.5390566 253.234375,46.8750108 253.234375,44.71875 L253.234375,28.9921875 L248.617188,28.9921875 L248.617188,25.640625 L253.234375,25.640625 L253.234375,19.5 L257.570312,19.5 Z M277.890625,51.46875 C274.453108,51.46875 271.656261,50.339855 269.5,48.0820312 C267.343739,45.8242075 266.265625,42.8047064 266.265625,39.0234375 L266.265625,38.2265625 C266.265625,35.7109249 266.746089,33.4648536 267.707031,31.4882812 C268.667974,29.5117089 270.01171,27.9648493 271.738281,26.8476562 C273.464852,25.7304632 275.335927,25.171875 277.351562,25.171875 C280.648454,25.171875 283.210928,26.2578016 285.039062,28.4296875 C286.867197,30.6015734 287.78125,33.7109173 287.78125,37.7578125 L287.78125,39.5625 L270.601562,39.5625 C270.664063,42.0625125 271.394524,44.0820236 272.792969,45.6210938 C274.191413,47.1601639 275.968739,47.9296875 278.125,47.9296875 C279.656258,47.9296875 280.95312,47.6171906 282.015625,46.9921875 C283.07813,46.3671844 284.007809,45.5390677 284.804688,44.5078125 L287.453125,46.5703125 C285.328114,49.8359538 282.140646,51.46875 277.890625,51.46875 L277.890625,51.46875 Z M277.351562,28.734375 C275.601554,28.734375 274.132818,29.3710874 272.945312,30.6445312 C271.757807,31.9179751 271.023439,33.7031135 270.742188,36 L283.445312,36 L283.445312,35.671875 C283.320312,33.468739 282.726568,31.7617248 281.664062,30.5507812 C280.601557,29.3398377 279.164072,28.734375 277.351562,28.734375 L277.351562,28.734375 Z" fill="#FFFFFF"></path>
        </g>
    </g>
</svg>