<?xml version="1.0" encoding="UTF-8"?>
<svg width="447px" height="68px" viewBox="0 0 447 68" version="1.1" xmlns="http://www.w3.org/2000/svg" xmlns:xlink="http://www.w3.org/1999/xlink">
    <!-- Generator: Sketch 39.1 (31720) - http://www.bohemiancoding.com/sketch -->
    <title>up to date</title>
    <desc>Created with Sketch.</desc>
    <defs></defs>
    <g id="Page-1" stroke="none" stroke-width="1" fill="none" fill-rule="evenodd">
        <g id="up-to-date">
            <rect id="Rectangle" fill="#ED6C63" x="0" y="0" width="447" height="68"></rect>
            <g id="Page-1" transform="translate(8.000000, 7.000000)" fill="#FFFFFF">
                <path d="M26.77,0 C11.985,0 0,11.989 0,26.77 C0,41.555 11.985,53.54 26.77,53.54 C41.555,53.54 53.54,41.551 53.54,26.77 C53.54,11.985 41.555,0 26.77,0 L26.77,0 Z M26.77,50.864 C13.485,50.864 2.676,40.055 2.676,26.77 C2.676,13.485 13.485,2.676 26.77,2.676 C40.055,2.676 50.864,13.485 50.864,26.77 C50.864,40.055 40.055,50.864 26.77,50.864 L26.77,50.864 Z" id="Fill-1"></path>
                <polygon id="Fill-2" points="36.414 15 26.652 24.765 16.89 15 15 16.894 24.761 26.656 15 36.418 16.89 38.312 26.652 28.547 36.414 38.312 38.304 36.418 28.543 26.656 38.304 16.894"></polygon>
            </g>
            <path d="M99.0664062,48.4921875 C97.3788978,50.4765724 94.9023601,51.46875 91.6367188,51.46875 C88.9335802,51.46875 86.8750071,50.6836016 85.4609375,49.1132812 C84.0468679,47.5429609 83.3320313,45.2187654 83.3164062,42.140625 L83.3164062,25.640625 L87.6523438,25.640625 L87.6523438,42.0234375 C87.6523438,45.8672067 89.2148281,47.7890625 92.3398438,47.7890625 C95.6523603,47.7890625 97.8554633,46.5546998 98.9492188,44.0859375 L98.9492188,25.640625 L103.285156,25.640625 L103.285156,51 L99.1601562,51 L99.0664062,48.4921875 Z M131.292969,38.6015625 C131.292969,42.4609568 130.410165,45.5703007 128.644531,47.9296875 C126.878897,50.2890743 124.488296,51.46875 121.472656,51.46875 C118.394516,51.46875 115.972665,50.4921973 114.207031,48.5390625 L114.207031,60.75 L109.871094,60.75 L109.871094,25.640625 L113.832031,25.640625 L114.042969,28.453125 C115.808603,26.2656141 118.261703,25.171875 121.402344,25.171875 C124.449234,25.171875 126.859366,26.320301 128.632812,28.6171875 C130.406259,30.914074 131.292969,34.1093545 131.292969,38.203125 L131.292969,38.6015625 Z M126.957031,38.109375 C126.957031,35.2499857 126.347662,32.9921958 125.128906,31.3359375 C123.91015,29.6796792 122.238292,28.8515625 120.113281,28.8515625 C117.488268,28.8515625 115.519538,30.0156134 114.207031,32.34375 L114.207031,44.4609375 C115.503913,46.7734491 117.488268,47.9296875 120.160156,47.9296875 C122.238292,47.9296875 123.890619,47.105477 125.117188,45.4570312 C126.343756,43.8085855 126.957031,41.3593913 126.957031,38.109375 L126.957031,38.109375 Z M135.746094,38.109375 C135.746094,34.2187305 136.66796,31.0898556 138.511719,28.7226562 C140.355478,26.3554569 142.769516,25.171875 145.753906,25.171875 C148.722671,25.171875 151.07421,26.1874898 152.808594,28.21875 L152.808594,15 L157.144531,15 L157.144531,51 L153.160156,51 L152.949219,48.28125 C151.214835,50.4062606 148.800797,51.46875 145.707031,51.46875 C142.769517,51.46875 140.375009,50.265637 138.523438,47.859375 C136.671866,45.453113 135.746094,42.3125194 135.746094,38.4375 L135.746094,38.109375 Z M140.082031,38.6015625 C140.082031,41.4765769 140.675775,43.7265544 141.863281,45.3515625 C143.050787,46.9765706 144.691396,47.7890625 146.785156,47.7890625 C149.53517,47.7890625 151.542962,46.5546998 152.808594,44.0859375 L152.808594,32.4375 C151.511712,30.046863 149.519545,28.8515625 146.832031,28.8515625 C144.707021,28.8515625 143.050787,29.6718668 141.863281,31.3125 C140.675775,32.9531332 140.082031,35.3827964 140.082031,38.6015625 L140.082031,38.6015625 Z M179.527344,51 C179.277343,50.4999975 179.07422,49.6093814 178.917969,48.328125 C176.902334,50.4218855 174.496108,51.46875 171.699219,51.46875 C169.199206,51.46875 167.148446,50.7617258 165.546875,49.3476562 C163.945304,47.9335867 163.144531,46.1406359 163.144531,43.96875 C163.144531,41.3281118 164.148427,39.2773511 166.15625,37.8164062 C168.164073,36.3554614 170.988263,35.625 174.628906,35.625 L178.847656,35.625 L178.847656,33.6328125 C178.847656,32.1171799 178.394536,30.9101607 177.488281,30.0117188 C176.582027,29.1132768 175.246103,28.6640625 173.480469,28.6640625 C171.933586,28.6640625 170.636724,29.0546836 169.589844,29.8359375 C168.542964,30.6171914 168.019531,31.5624945 168.019531,32.671875 L163.660156,32.671875 C163.660156,31.4062437 164.109371,30.1835996 165.007812,29.0039062 C165.906254,27.8242129 167.124992,26.8906284 168.664062,26.203125 C170.203133,25.5156216 171.894522,25.171875 173.738281,25.171875 C176.660171,25.171875 178.94921,25.9023364 180.605469,27.3632812 C182.261727,28.8242261 183.121093,30.8359247 183.183594,33.3984375 L183.183594,45.0703125 C183.183594,47.3984491 183.480466,49.2499931 184.074219,50.625 L184.074219,51 L179.527344,51 Z M172.332031,47.6953125 C173.691413,47.6953125 174.980463,47.3437535 176.199219,46.640625 C177.417975,45.9374965 178.300779,45.0234431 178.847656,43.8984375 L178.847656,38.6953125 L175.449219,38.6953125 C170.136692,38.6953125 167.480469,40.2499845 167.480469,43.359375 C167.480469,44.7187568 167.933589,45.7812462 168.839844,46.546875 C169.746098,47.3125038 170.910149,47.6953125 172.332031,47.6953125 L172.332031,47.6953125 Z M195.863281,19.5 L195.863281,25.640625 L200.597656,25.640625 L200.597656,28.9921875 L195.863281,28.9921875 L195.863281,44.71875 C195.863281,45.7343801 196.074217,46.4960912 196.496094,47.0039062 C196.917971,47.5117213 197.636714,47.765625 198.652344,47.765625 C199.152346,47.765625 199.839839,47.6718759 200.714844,47.484375 L200.714844,51 C199.574213,51.3125016 198.464849,51.46875 197.386719,51.46875 C195.449209,51.46875 193.988286,50.8828184 193.003906,49.7109375 C192.019526,48.5390566 191.527344,46.8750108 191.527344,44.71875 L191.527344,28.9921875 L186.910156,28.9921875 L186.910156,25.640625 L191.527344,25.640625 L191.527344,19.5 L195.863281,19.5 Z M216.183594,51.46875 C212.746077,51.46875 209.94923,50.339855 207.792969,48.0820312 C205.636708,45.8242075 204.558594,42.8047064 204.558594,39.0234375 L204.558594,38.2265625 C204.558594,35.7109249 205.039058,33.4648536 206,31.4882812 C206.960942,29.5117089 208.304679,27.9648493 210.03125,26.8476562 C211.757821,25.7304632 213.628896,25.171875 215.644531,25.171875 C218.941423,25.171875 221.503897,26.2578016 223.332031,28.4296875 C225.160165,30.6015734 226.074219,33.7109173 226.074219,37.7578125 L226.074219,39.5625 L208.894531,39.5625 C208.957032,42.0625125 209.687493,44.0820236 211.085938,45.6210938 C212.484382,47.1601639 214.261708,47.9296875 216.417969,47.9296875 C217.949226,47.9296875 219.246088,47.6171906 220.308594,46.9921875 C221.371099,46.3671844 222.300777,45.5390677 223.097656,44.5078125 L225.746094,46.5703125 C223.621083,49.8359538 220.433615,51.46875 216.183594,51.46875 L216.183594,51.46875 Z M215.644531,28.734375 C213.894522,28.734375 212.425787,29.3710874 211.238281,30.6445312 C210.050775,31.9179751 209.316408,33.7031135 209.035156,36 L221.738281,36 L221.738281,35.671875 C221.613281,33.468739 221.019537,31.7617248 219.957031,30.5507812 C218.894526,29.3398377 217.45704,28.734375 215.644531,28.734375 L215.644531,28.734375 Z M258.628906,51 C258.378905,50.4999975 258.175782,49.6093814 258.019531,48.328125 C256.003896,50.4218855 253.59767,51.46875 250.800781,51.46875 C248.300769,51.46875 246.250008,50.7617258 244.648438,49.3476562 C243.046867,47.9335867 242.246094,46.1406359 242.246094,43.96875 C242.246094,41.3281118 243.24999,39.2773511 245.257812,37.8164062 C247.265635,36.3554614 250.089826,35.625 253.730469,35.625 L257.949219,35.625 L257.949219,33.6328125 C257.949219,32.1171799 257.496098,30.9101607 256.589844,30.0117188 C255.683589,29.1132768 254.347665,28.6640625 252.582031,28.6640625 C251.035149,28.6640625 249.738286,29.0546836 248.691406,29.8359375 C247.644526,30.6171914 247.121094,31.5624945 247.121094,32.671875 L242.761719,32.671875 C242.761719,31.4062437 243.210933,30.1835996 244.109375,29.0039062 C245.007817,27.8242129 246.226555,26.8906284 247.765625,26.203125 C249.304695,25.5156216 250.996085,25.171875 252.839844,25.171875 C255.761733,25.171875 258.050773,25.9023364 259.707031,27.3632812 C261.36329,28.8242261 262.222656,30.8359247 262.285156,33.3984375 L262.285156,45.0703125 C262.285156,47.3984491 262.582028,49.2499931 263.175781,50.625 L263.175781,51 L258.628906,51 Z M251.433594,47.6953125 C252.792976,47.6953125 254.082025,47.3437535 255.300781,46.640625 C256.519537,45.9374965 257.402341,45.0234431 257.949219,43.8984375 L257.949219,38.6953125 L254.550781,38.6953125 C249.238255,38.6953125 246.582031,40.2499845 246.582031,43.359375 C246.582031,44.7187568 247.035152,45.7812462 247.941406,46.546875 C248.847661,47.3125038 250.011712,47.6953125 251.433594,47.6953125 L251.433594,47.6953125 Z M277.097656,45.1171875 L283.378906,25.640625 L287.808594,25.640625 L278.714844,51 L275.410156,51 L266.222656,25.640625 L270.652344,25.640625 L277.097656,45.1171875 Z M307.285156,51 C307.035155,50.4999975 306.832032,49.6093814 306.675781,48.328125 C304.660146,50.4218855 302.25392,51.46875 299.457031,51.46875 C296.957019,51.46875 294.906258,50.7617258 293.304688,49.3476562 C291.703117,47.9335867 290.902344,46.1406359 290.902344,43.96875 C290.902344,41.3281118 291.90624,39.2773511 293.914062,37.8164062 C295.921885,36.3554614 298.746076,35.625 302.386719,35.625 L306.605469,35.625 L306.605469,33.6328125 C306.605469,32.1171799 306.152348,30.9101607 305.246094,30.0117188 C304.339839,29.1132768 303.003915,28.6640625 301.238281,28.6640625 C299.691399,28.6640625 298.394536,29.0546836 297.347656,29.8359375 C296.300776,30.6171914 295.777344,31.5624945 295.777344,32.671875 L291.417969,32.671875 C291.417969,31.4062437 291.867183,30.1835996 292.765625,29.0039062 C293.664067,27.8242129 294.882805,26.8906284 296.421875,26.203125 C297.960945,25.5156216 299.652335,25.171875 301.496094,25.171875 C304.417983,25.171875 306.707023,25.9023364 308.363281,27.3632812 C310.01954,28.8242261 310.878906,30.8359247 310.941406,33.3984375 L310.941406,45.0703125 C310.941406,47.3984491 311.238278,49.2499931 311.832031,50.625 L311.832031,51 L307.285156,51 Z M300.089844,47.6953125 C301.449226,47.6953125 302.738275,47.3437535 303.957031,46.640625 C305.175787,45.9374965 306.058591,45.0234431 306.605469,43.8984375 L306.605469,38.6953125 L303.207031,38.6953125 C297.894505,38.6953125 295.238281,40.2499845 295.238281,43.359375 C295.238281,44.7187568 295.691402,45.7812462 296.597656,46.546875 C297.503911,47.3125038 298.667962,47.6953125 300.089844,47.6953125 L300.089844,47.6953125 Z M322.449219,51 L318.113281,51 L318.113281,25.640625 L322.449219,25.640625 L322.449219,51 Z M317.761719,18.9140625 C317.761719,18.210934 317.97656,17.6171899 318.40625,17.1328125 C318.83594,16.6484351 319.472652,16.40625 320.316406,16.40625 C321.16016,16.40625 321.800779,16.6484351 322.238281,17.1328125 C322.675783,17.6171899 322.894531,18.210934 322.894531,18.9140625 C322.894531,19.617191 322.675783,20.2031227 322.238281,20.671875 C321.800779,21.1406273 321.16016,21.375 320.316406,21.375 C319.472652,21.375 318.83594,21.1406273 318.40625,20.671875 C317.97656,20.2031227 317.761719,19.617191 317.761719,18.9140625 L317.761719,18.9140625 Z M334.097656,51 L329.761719,51 L329.761719,15 L334.097656,15 L334.097656,51 Z M356.691406,51 C356.441405,50.4999975 356.238282,49.6093814 356.082031,48.328125 C354.066396,50.4218855 351.66017,51.46875 348.863281,51.46875 C346.363269,51.46875 344.312508,50.7617258 342.710938,49.3476562 C341.109367,47.9335867 340.308594,46.1406359 340.308594,43.96875 C340.308594,41.3281118 341.31249,39.2773511 343.320312,37.8164062 C345.328135,36.3554614 348.152326,35.625 351.792969,35.625 L356.011719,35.625 L356.011719,33.6328125 C356.011719,32.1171799 355.558598,30.9101607 354.652344,30.0117188 C353.746089,29.1132768 352.410165,28.6640625 350.644531,28.6640625 C349.097649,28.6640625 347.800786,29.0546836 346.753906,29.8359375 C345.707026,30.6171914 345.183594,31.5624945 345.183594,32.671875 L340.824219,32.671875 C340.824219,31.4062437 341.273433,30.1835996 342.171875,29.0039062 C343.070317,27.8242129 344.289055,26.8906284 345.828125,26.203125 C347.367195,25.5156216 349.058585,25.171875 350.902344,25.171875 C353.824233,25.171875 356.113273,25.9023364 357.769531,27.3632812 C359.42579,28.8242261 360.285156,30.8359247 360.347656,33.3984375 L360.347656,45.0703125 C360.347656,47.3984491 360.644528,49.2499931 361.238281,50.625 L361.238281,51 L356.691406,51 Z M349.496094,47.6953125 C350.855476,47.6953125 352.144525,47.3437535 353.363281,46.640625 C354.582037,45.9374965 355.464841,45.0234431 356.011719,43.8984375 L356.011719,38.6953125 L352.613281,38.6953125 C347.300755,38.6953125 344.644531,40.2499845 344.644531,43.359375 C344.644531,44.7187568 345.097652,45.7812462 346.003906,46.546875 C346.910161,47.3125038 348.074212,47.6953125 349.496094,47.6953125 L349.496094,47.6953125 Z M388.613281,38.6015625 C388.613281,42.4765819 387.722665,45.589832 385.941406,47.9414062 C384.160147,50.2929805 381.769546,51.46875 378.769531,51.46875 C375.56639,51.46875 373.089853,50.3359488 371.339844,48.0703125 L371.128906,51 L367.144531,51 L367.144531,15 L371.480469,15 L371.480469,28.4296875 C373.230478,26.2578016 375.644516,25.171875 378.722656,25.171875 C381.800797,25.171875 384.218741,26.3359259 385.976562,28.6640625 C387.734384,30.9921991 388.613281,34.1796673 388.613281,38.2265625 L388.613281,38.6015625 Z M384.277344,38.109375 C384.277344,35.1562352 383.707037,32.875008 382.566406,31.265625 C381.425776,29.656242 379.785167,28.8515625 377.644531,28.8515625 C374.785142,28.8515625 372.730475,30.1796742 371.480469,32.8359375 L371.480469,43.8046875 C372.8086,46.4609508 374.878892,47.7890625 377.691406,47.7890625 C379.769542,47.7890625 381.386713,46.984383 382.542969,45.375 C383.699225,43.765617 384.277344,41.3437662 384.277344,38.109375 L384.277344,38.109375 Z M398.785156,51 L394.449219,51 L394.449219,15 L398.785156,15 L398.785156,51 Z M416.246094,51.46875 C412.808577,51.46875 410.01173,50.339855 407.855469,48.0820312 C405.699208,45.8242075 404.621094,42.8047064 404.621094,39.0234375 L404.621094,38.2265625 C404.621094,35.7109249 405.101558,33.4648536 406.0625,31.4882812 C407.023442,29.5117089 408.367179,27.9648493 410.09375,26.8476562 C411.820321,25.7304632 413.691396,25.171875 415.707031,25.171875 C419.003923,25.171875 421.566397,26.2578016 423.394531,28.4296875 C425.222665,30.6015734 426.136719,33.7109173 426.136719,37.7578125 L426.136719,39.5625 L408.957031,39.5625 C409.019532,42.0625125 409.749993,44.0820236 411.148438,45.6210938 C412.546882,47.1601639 414.324208,47.9296875 416.480469,47.9296875 C418.011726,47.9296875 419.308588,47.6171906 420.371094,46.9921875 C421.433599,46.3671844 422.363277,45.5390677 423.160156,44.5078125 L425.808594,46.5703125 C423.683583,49.8359538 420.496115,51.46875 416.246094,51.46875 L416.246094,51.46875 Z M415.707031,28.734375 C413.957022,28.734375 412.488287,29.3710874 411.300781,30.6445312 C410.113275,31.9179751 409.378908,33.7031135 409.097656,36 L421.800781,36 L421.800781,35.671875 C421.675781,33.468739 421.082037,31.7617248 420.019531,30.5507812 C418.957026,29.3398377 417.51954,28.734375 415.707031,28.734375 L415.707031,28.734375 Z" id="update-available" fill="#FFFFFF"></path>
        </g>
    </g>
</svg>